<svg 
          width="32" 
          height="28" fill="none" 
          xmlns="http://www.w3.org/2000/svg">
          <path d="M 30 12.001429293528899 L 6.279999732971191 12.001429293528899 L 13.540000915527344 3.282210070321051 C 13.87947803735733 2.873813245847001 14.042800899595022 2.3472993579145394 13.994041442871094 1.8184941448620051 C 13.945281986147165 1.2896889318094709 13.688434094190598 0.8019097652543402 13.280000686645508 0.4624630501330972 C 12.871567279100418 0.12301633501185416 12.34500515460968 -0.04029284559096083 11.816152572631836 0.008462243785350477 C 11.287299990653992 0.05721733316166179 10.799476206302643 0.31404319631691274 10.459999084472656 0.7224400207909625 L 0.46000003814697266 12.721364117090092 C 0.39272139966487885 12.816804210796548 0.3325585871934891 12.917067214445591 0.2799997329711914 13.021338390623933 C 0.2799997329711914 13.121329435189638 0.28000034391880035 13.181324286916439 0.1400003433227539 13.281315331482144 C 0.04934731125831604 13.510612143876266 0.001882242620922625 13.754693890216307 0 14.001250155043337 C 0.001882242620922625 14.247806419870367 0.04934731125831604 14.491888166210408 0.1400003433227539 14.72118497860453 C 0.1400003433227539 14.821176023170235 0.13999973237514496 14.881170874897037 0.2799997329711914 14.981161919462743 C 0.3325585871934891 15.085433095641084 0.39272139966487885 15.185696099290128 0.46000003814697266 15.281136192996584 L 10.459999084472656 27.280059454905427 C 10.64804458618164 27.505804774452724 10.883524656295776 27.687349639465065 11.14969253540039 27.811780623604907 C 11.415860414505005 27.93621160774475 11.706178694963455 28.000473307335934 12 27.999996185644413 C 12.467304319143295 28.000909129909505 12.920176565647125 27.83817390808452 13.280000686645508 27.540038302941433 C 13.482517629861832 27.372155163353522 13.649920977652073 27.165969844351814 13.772624969482422 26.93329638857494 C 13.89532896131277 26.70062293279807 13.970921583473682 26.446033530807973 13.995073318481445 26.18410355049073 C 14.019225053489208 25.922173570173484 13.991461008787155 25.658052212772386 13.913372039794922 25.406867570137656 C 13.835283070802689 25.155682927502927 13.708404868841171 24.92236965827597 13.540000915527344 24.72029119335452 L 6.279999732971191 16.001071016557777 L 30 16.001071016557777 C 30.530432999134064 16.001071016557777 31.039142340421677 15.790375818068588 31.414215087890625 15.415336665581618 C 31.789287835359573 15.040297513094648 32 14.531635643695322 32 14.001250155043337 C 32 13.470864666391352 31.789287835359573 12.962202796992026 31.414215087890625 12.587163644505056 C 31.039142340421677 12.212124492018086 30.530432999134064 12.001429293528899 30 12.001429293528899 Z" fill="rgb(0,0,0)"/>
        </svg>